<svg version="1.2" xmlns="http://www.w3.org/2000/svg" viewBox="0 0 500 500" width="500" height="500">
	<title>Novo Projeto</title>
	<style>
		.s0 { fill: #212121 } 
	</style>
	<path fill-rule="evenodd" class="s0" d="m324.7 89.9c-7.8-7.9-9.8-21.4 2.1-25.9 7.4-2.9 15.7 0 21 3.5 9.1 6.2 10.6 11.4 13.3 13.6 6.2-0.6 12.6-2 19-3 29.9-4.2 69.8-7.1 97.2 6 2.4 1.2 5.1 2.7 6.9 4.1 6.2 4.5 12.4 11.4 14 19.3-8.9-1.5-14.5-2-23.6 0-7.2 1.7-12.7 4.4-18.1 7.7l5.4 16.8 11.2-0.5c-0.8-3-2-5.5-0.3-8.7 3.4-6.4 15.8-4.9 16.6 7.9l10.6-0.9c-0.8 15.7-6.2 36.8-11.4 51.6-1.7 4.9-5.7 9.1-10.1 10.9-8.6 3.7-25.2 6.4-34.8 7.2-18.3 1.7-22.8 0.2-39.6-1.3 1 11.6 2 21.7 1.7 33.6-0.9 19-5.2 38.6-15.3 53.9-3.5 5.2-11.8 14.8-18 16.6 0.9-2.5 2.9-6.2 4.1-8.9 1.1-2.8 2.5-5.5 3.8-8.5 0.7-1.6 1.2-2.9 1.9-4.4 0.8-1.5 1.6-2.7 1.3-4.7-0.3-1.9-1.5-9.1-2-10.4-4 7.9-5 10.9-10.3 19.1-11.7 19-20.1 38.3-27 60.1-9.4 30.1-15.6 68.2-14.4 102.2h-28.1c-1-6.4-2.5-13.1-3.7-19.5l-11.2-58.5c-0.9-3.8-14.5-76.4-15.3-77.9-2.7 3.9-5.9 20.7-6.4 26.9-1 13.1 0.8 17.9 2.5 29.9-3.2 0.8-6.2 1.8-9.6 2.7-17.1 4.2-34.7 7-52.5 7.3-3.9 0-20.5 0-22.9-1 4.6-1 30.9-9 37.2-11 3.6-1.1 2.6-0.4 4.5-3.6 1-1.5 2.2-3.5 2.8-5-4.5 0.7-9 1.5-13.6 2.2-14.6 1.8-29.2 2.7-44 2.3-14.1-0.3-28-1.5-41.6-4.7-3.9-0.8-9.1-2.7-12.3-3.3-3 7.2-8 15.1-12.2 21.8-2.2 3.4-4.7 6.9-7.1 10.1-6.2 8-12.9 15.6-20.7 22.1-6.7 5.8-18.1 13.5-28 14.7l-3.5 44.5c-3.9 0-29.8 0.3-31.3-0.2l-8.4-68.2c4.2-3.9 5.7-4 9.9-9.4 24.2-31.1 5.1-71.5-14.4-97.9 1.5-3.9 8.7-13.3 11.1-16.5 5.9-8 12.2-15.4 18.8-22.8l6.7-7.1c3-3.3 7.1-7.2 10.6-10.2l18.6-15.8c26.9-21.2 58.8-37.1 92.9-45.4 39.8-9.5 83.3-7.8 122.8 2.7 2.2 0.5 9.2 2.9 10.9 2.4 2.5-1 6.9-3.2 8.9-4.5-1.7-0.9-33.2-10.5-34.3-10.6 2.1-0.2 4.8 0.1 6.9 0 5.9-0.5 11.6-2.2 16.7-4.4q5-2.3 9-5c5.6-3.9 10.3-8.3 15-13.1 3.8-4.1 16.4-20.9 17.3-24.6-2-2-4.1-3.1-7.2-6.3zm30.2 20.1h16.6c1.7 5.4 8.4 9.1 15.8 9.1 7.2 0 13.9-3.7 15.6-9.1h17.2c-8.1-5.2-21-9.6-32.6-10.4-5.9-0.3-13.5 1.3-18.5 3-2.5 0.9-5.2 2-7.4 3.2-1.3 0.7-2.3 1.2-3.5 1.9z"/>
	<path fill-rule="evenodd" class="s0" d="m105.8 380.6l26.7 24.8c0.7 0.7 1.2 1.1 2 1.7 1 1 1.5 2.7 2.2 4.6l9.8 25c1.1 3.2 2.5 6.9 3.8 9.7h32.4l-21.6-88.7-36-6.2c0 0.2-0.1 0.2-0.1 0.2 0 0-18.3 26.9-19.2 28.9z"/>
	<path fill-rule="evenodd" class="s0" d="m362.3 446.4h24c0.2-5.5-1-12.9-1.2-18.8-0.3-6.7-0.7-13.3-0.8-19.8-0.5-33.6 3.2-60.6 9.6-93 0.6-2.9 1.3-5.8 1.8-8.6 0.7-2.5 1.7-6.1 1.8-8.6l-4.7 8.2c-7 10.8-17.6 23.4-30.7 27.3-2.3 0.8-1.7 0.1-2.8 3.7-2.2 6.5-4.1 13.6-5.6 20.6-6.2 31.4-1.8 61.6 8.6 89z"/>
	<path fill-rule="evenodd" class="s0" d="m369.8 70.2c3.1-0.2 17.7-2.5 22.7-3.2 0.7-0.2 1.2-0.2 1.7-0.3l1.5-0.4c-9.2-13.7-26.2-17.6-29.2-8-1.4 4.5 1.2 9.2 3.3 11.9z"/>
</svg>