<svg version="1.2" xmlns="http://www.w3.org/2000/svg" viewBox="0 0 500 500" width="500" height="500">
	<title>Novo Projeto</title>
	<style>
		.s0 { fill: #212121 } 
	</style>
	<path fill-rule="evenodd" class="s0" d="m262.4 119.7c-6.2-6.2-7.9-17.1 1.8-20.8 5.9-2.2 12.7 0 17 3 7.3 4.8 8.6 9.1 10.6 11 5.1-0.8 10.2-1.8 15.4-2.6 24.2-3.5 56.3-5.7 78.6 4.8 1.9 1 4.1 2.4 5.5 3.5 5.1 3.5 10 9.2 11.3 15.4-7.3-1.1-11.7-1.6-19.1 0-5.8 1.5-10.3 3.7-14.6 6.2l4.5 13.7 9-0.3c-0.8-2.6-1.7-4.6-0.3-7.2 2.7-5.1 12.7-3.9 13.5 6.4l8.4-0.7c-0.6 12.6-5 29.8-9.2 41.7-1.2 4-4.4 7.3-8.1 8.9-6.8 3-20.3 5.1-28.1 5.7-14.8 1.4-18.4 0.2-32-1.1 0.8 9.4 1.6 17.5 1.3 27.2-0.6 15.2-4.1 31.3-12.4 43.7-2.7 4.1-9.5 11.8-14.5 13.3 0.7-2 2.4-5 3.2-7.1 1.1-2.4 2.1-4.6 3.2-7 0.5-1.1 1.1-2.4 1.6-3.5 0.6-1.3 1.3-2.2 0.9-3.8-0.1-1.6-1.1-7.3-1.5-8.4-3.2 6.5-4.2 8.9-8.3 15.5-9.4 15.3-16.2 30.9-21.8 48.5-7.6 24.3-12.7 55.2-11.6 82.7h-22.7c-0.8-5.3-2.1-10.7-3-15.9l-9.3-47.2c-0.4-3.2-11.6-61.7-12.2-63.1-2.2 3.3-4.8 16.8-5.1 21.9-0.8 10.5 0.7 14.5 1.9 24.2-2.5 0.4-4.9 1.4-7.6 2-14 3.5-28.1 5.8-42.6 5.9-3 0.2-16.5 0.2-18.4-0.8 3.6-0.8 24.9-7.3 30-8.9 3-0.8 2.2-0.3 3.7-2.8 0.8-1.2 1.7-2.7 2.2-4-3.5 0.5-7.2 1.3-11 1.7-11.7 1.5-23.5 2.1-35.4 1.9-11.5-0.3-22.8-1.2-33.7-3.8-3.2-0.8-7.3-2.2-9.9-2.7-2.4 5.9-6.5 12.3-10 17.5-1.7 2.9-3.6 5.7-5.7 8.3-4.9 6.5-10.3 12.5-16.7 17.9-5.4 4.6-14.6 10.8-22.6 11.8l-2.8 36.1c-3.2 0-24.2 0.1-25.3-0.2l-6.8-55.1c3.5-3.2 4.6-3.4 7.9-7.7 19.7-25.1 4.3-57.8-11.6-79.1 1.3-3 7.2-10.8 9.1-13.4 4.7-6.5 9.8-12.5 15.1-18.3l5.4-5.8c2.5-2.6 5.7-5.8 8.5-8.1l15.1-12.9c21.8-17 47.4-29.9 75.1-36.6 32.2-7.8 67.4-6.3 99.3 2.1 1.6 0.5 7.5 2.4 8.8 1.9 2-0.8 5.5-2.5 7.1-3.7-1.3-0.6-26.9-8.4-27.6-8.4 1.5-0.3 3.8 0 5.5-0.1 4.8-0.4 9.4-1.8 13.5-3.5 2.6-1.2 5.1-2.6 7.3-4.2 4.5-3 8.3-6.6 12.1-10.5 3-3.1 13.2-16.8 13.8-19.8-1.5-1.6-3.1-2.6-5.7-5.3zm24.3 16.4h13.6c1.2 4.4 6.6 7.5 12.7 7.5 5.9-0.2 11.3-3.2 12.7-7.5h13.8c-6.5-4.3-17-7.8-26.4-8.4-4.7-0.3-10.8 1.1-14.9 2.5-2.1 0.6-4.1 1.6-6.1 2.6-0.9 0.4-1.9 0.9-2.7 1.5z"/>
	<path fill-rule="evenodd" class="s0" d="m85.5 354.8l21.6 20c0.5 0.5 1 0.8 1.6 1.3 1 1 1.3 2.2 1.8 3.8l7.9 20.2c1 2.6 2.1 5.6 3.2 8h26.1l-17.5-71.7-29.1-5.1c0 0.1 0 0.1 0 0.1 0 0-14.8 21.8-15.6 23.4z"/>
	<path fill-rule="evenodd" class="s0" d="m292.8 408.1h19.5c0-4.7-0.9-10.5-1.1-15.3-0.3-5.4-0.5-10.8-0.6-16.1-0.5-27.1 2.5-48.9 7.8-75.1 0.5-2.4 0.9-4.6 1.4-6.9 0.5-2 1.3-4.9 1.4-7l-3.6 6.5c-5.9 8.8-14.5 19.1-25 22.3-1.9 0.5-1.2 0-2.2 2.9-1.9 5.2-3.3 10.9-4.5 16.7-5 25.4-1.5 49.7 6.9 72z"/>
	<path fill-rule="evenodd" class="s0" d="m299 103.8c2.4 0 14.1-1.9 18.3-2.5 0.4 0 0.9 0 1.4-0.2l1.1-0.3c-7.5-11.1-21.1-14.3-23.5-6.5-1.1 3.6 0.9 7.5 2.7 9.5z"/>
	<path fill-rule="evenodd" class="s0" d="m397.3 411h31 26.9c-2.9-22.4 8.2-38.8 20.3-52.3 8.4-9.5 17-14 24.5-20-12.2 0.4-31.5 7.3-41.3 14.1l-11.2 8.1c-0.6-1.9-2.2-4.4-3.1-7.8-0.8-3-1.3-6.3-1.3-9.7-0.3-12.2 3.8-25.6 8.6-36.5 1.3-3 6.8-13.5 7.1-15.1l-7.9 5.7c-6.8 5.4-14.6 15.9-19.6 23.2-3.3 4.8-7.4 12.6-10 18.4-1.6 3.9-7.5 17.4-7.5 20.9-0.7-0.8-0.7-0.7-1.1-2.7-4.4-25.8-6.2-52.3-3.1-78.4 0.9-9.2 2.8-17 4.2-25.8-5.7 1.8-13 11-16.5 15.8-4.3 5.7-8.2 12.9-11.4 20.5-6.1 13.8-10.8 31.8-12.7 47.4 0 0.1-0.4 1.7-0.4 1.9-0.4 1.2 0 0.9-0.9 1.6-0.2-1.2-4.3-4.2-5.7-5.5-5.8-4.9-14.8-9.6-22-12.5-7.9-3.2-30-8.4-39.2-7 7.9 0.8 26 11.8 32.6 18.1 1.4 1.4 2 2.6 3.6 3.8 8.8 7.8 18.4 26.6 20.8 38.2l-5.4-6.9c-2-2.7-3.6-4.4-6.3-6.6-4.8-4-8.6-7-14.8-10.5-8.8-5.1-26.7-11.8-38.8-11.9 6.7 4.4 8.6 3.8 17.8 11.1 18.4 14.6 28.3 34.2 27.2 60.4h24.8z"/>
	<path fill-rule="evenodd" class="s0" d="m-51.8-89.1c0.2 0.9 2.9 4.4 3.7 5.3 1 1 2 1.9 3.1 2.8q0.9 0.5 2 1c1.1 0.5 2.3 0.8 3.5 0.9 0.5 0.1 1 0 1.5 0.1-0.2 0-7 2-7.3 2.2 0.4 0.3 1.3 0.7 1.9 1 0.3 0.1 1.8-0.4 2.3-0.6 8.4-2.2 17.6-2.5 26-0.5 7.3 1.7 14 5.1 19.7 9.6l4 3.3c0.7 0.7 1.6 1.5 2.2 2.2l1.4 1.5c1.4 1.5 2.8 3.1 4 4.9 0.5 0.6 2 2.6 2.4 3.4-4.2 5.6-8.2 14.2-3.1 20.8 0.9 1.1 1.2 1.2 2.1 2l-1.7 14.4c-0.4 0.2-5.9 0.1-6.7 0.1l-0.7-9.5c-2.1-0.2-4.5-1.8-6-3.1-1.6-1.3-3.1-2.9-4.4-4.7-0.5-0.6-1-1.4-1.5-2.1-0.9-1.4-1.9-3.1-2.6-4.6-0.6 0.1-1.7 0.5-2.6 0.7-2.9 0.7-5.8 0.9-8.8 1q-4.7 0.1-9.3-0.5c-1-0.1-1.9-0.3-2.9-0.5 0.1 0.4 0.4 0.8 0.6 1.1 0.4 0.7 0.2 0.5 1 0.7 1.3 0.5 6.9 2.2 7.9 2.4-0.6 0.2-4.1 0.2-4.9 0.2-3.8-0.1-7.5-0.7-11.2-1.6-0.7-0.1-1.3-0.3-2-0.5 0.4-2.6 0.8-3.6 0.5-6.4-0.1-1.3-0.7-4.8-1.3-5.7-0.2 0.4-3.1 15.7-3.2 16.6l-2.4 12.4c-0.3 1.3-0.6 2.7-0.8 4.1h-6c0.3-7.2-1-15.3-3-21.7-1.5-4.6-3.3-8.7-5.8-12.7-1-1.8-1.2-2.4-2.1-4.1-0.1 0.3-0.4 1.8-0.5 2.2 0 0.5 0.2 0.7 0.3 1 0.2 0.4 0.3 0.6 0.5 1 0.2 0.6 0.5 1.2 0.8 1.8 0.2 0.5 0.7 1.3 0.8 1.9-1.3-0.4-3.1-2.5-3.8-3.6-2.1-3.2-3.1-7.4-3.2-11.4-0.1-2.5 0.1-4.7 0.3-7.1-3.6 0.3-4.5 0.6-8.4 0.3-2-0.2-5.5-0.8-7.4-1.6-0.9-0.3-1.7-1.2-2.1-2.3-1.1-3.1-2.2-7.6-2.4-10.9l2.2 0.2c0.2-2.7 2.8-3 3.5-1.7 0.4 0.7 0.2 1.2 0 1.9l2.4 0.1 1.1-3.6c-1.1-0.7-2.3-1.3-3.8-1.6-1.9-0.5-3.1-0.4-5 0 0.3-1.7 1.6-3.2 2.9-4.1 0.4-0.3 1-0.6 1.5-0.9 5.8-2.8 14.3-2.2 20.6-1.3 1.3 0.3 2.7 0.5 4 0.7 0.6-0.5 0.9-1.6 2.8-2.9 1.2-0.8 2.9-1.4 4.5-0.8 2.5 1 2.1 3.9 0.4 5.5-0.6 0.7-1.1 1-1.5 1.3zm-5.5 2.5c-0.3-0.1-0.5-0.2-0.8-0.4-0.4-0.2-1-0.5-1.6-0.7-1-0.3-2.6-0.7-3.9-0.6-2.4 0.2-5.2 1.1-6.8 2.2h3.6c0.3 1.1 1.7 1.9 3.3 1.9 1.6 0 3-0.8 3.3-1.9h3.6z"/>
	<path fill-rule="evenodd" class="s0" d="m-3.9-28.7l-5.6 5.2c-0.2 0.2-0.3 0.2-0.4 0.4-0.3 0.2-0.3 0.5-0.5 0.9l-2.1 5.3c-0.2 0.7-0.5 1.5-0.8 2.1h-6.9l4.7-18.8 7.5-1.3q0.1 0 0.1 0c0 0 3.9 5.7 4 6.2z"/>
	<path fill-rule="evenodd" class="s0" d="m-58.2-14.8h-5.1c-0.1-1.2 0.2-2.7 0.3-4 0-1.4 0.1-2.8 0.1-4.2 0.1-7.1-0.7-12.8-2-19.7-0.2-0.6-0.3-1.2-0.4-1.8-0.1-0.6-0.4-1.3-0.4-1.8l1 1.7c1.5 2.3 3.8 5 6.5 5.8 0.5 0.2 0.4 0 0.6 0.8 0.5 1.4 0.9 2.8 1.2 4.3 1.3 6.7 0.4 13.1-1.8 18.9z"/>
	<path fill-rule="evenodd" class="s0" d="m-59.8-94.6c-0.7 0-3.7-0.5-4.8-0.6-0.1 0-0.3 0-0.4-0.1l-0.3-0.1c1.9-2.9 5.5-3.7 6.2-1.7 0.3 1-0.3 2-0.7 2.5z"/>
</svg>