<svg version="1.2" xmlns="http://www.w3.org/2000/svg" viewBox="0 0 500 500" width="500" height="500">
	<title>Novo Projeto</title>
	<style>
		.s0 { fill: #212121 } 
	</style>
	<path fill-rule="evenodd" class="s0" d="m230.4 123.2c0.7 3 10.9 16.6 13.9 19.9 3.9 3.9 7.7 7.4 12.2 10.6 2.2 1.4 4.8 3 7.3 4.1 4.2 1.8 8.8 3.2 13.6 3.5 1.8 0.2 4-0.1 5.6 0-0.8 0.2-26.5 8-27.8 8.7 1.6 1.1 5.1 2.8 7.2 3.6 1.3 0.5 7.2-1.4 8.8-1.9 32.1-8.4 67.4-9.9 99.8-2 27.9 6.7 53.6 19.6 75.5 36.7l15.1 12.9c2.9 2.4 6.1 5.6 8.5 8.2l5.6 5.9c5.3 5.8 10.4 11.8 15.2 18.4 1.9 2.5 7.8 10.4 9.1 13.4-16 21.4-31.5 54.3-11.7 79.6 3.4 4.3 4.5 4.5 8 7.5l-6.8 55.4c-1.2 0.5-22.3 0.2-25.5 0.2l-2.8-36.1c-8-1-17.3-7.2-22.7-11.8-6.4-5.5-11.8-11.5-17-18.1-1.9-2.5-3.8-5.4-5.6-8.3-3.5-5.3-7.6-11.8-10-17.6-2.6 0.5-6.9 1.9-9.9 2.7-11.1 2.6-22.4 3.6-33.9 3.9-12 0.1-23.8-0.5-35.6-2.1-3.9-0.3-7.5-1.1-11.1-1.6 0.5 1.3 1.5 2.9 2.3 4 1.4 2.6 0.6 2.1 3.7 2.9 5.1 1.6 26.5 8.1 30.2 8.9-2 1-15.5 1-18.6 0.8-14.5-0.1-28.7-2.4-42.8-5.9-2.7-0.6-5.1-1.6-7.7-2.2 1.3-9.6 2.7-13.6 1.9-24.2-0.3-5.1-2.8-18.7-5.1-22-0.6 1.4-11.8 60.2-12.3 63.4l-9.2 47.5c-1 5.3-2.3 10.7-3.1 15.8h-22.8c1.1-27.5-4-58.5-11.7-82.9-5.6-17.8-12.5-33.4-21.9-48.8-4.1-6.7-5.1-9.2-8.3-15.6-0.5 1.1-1.4 6.8-1.6 8.4-0.3 1.6 0.3 2.6 1 3.9 0.4 1.1 1.1 2.4 1.6 3.5 1.1 2.4 2 4.6 3.2 7 0.8 2.1 2.5 5.1 3.2 7.2-5-1.6-11.9-9.3-14.6-13.6-8.3-12.3-11.8-28.4-12.5-43.7-0.3-9.8 0.5-17.9 1.3-27.4-13.6 1.3-17.2 2.6-32.1 1.1-7.8-0.6-21.4-2.8-28.3-5.7-3.7-1.6-6.8-5-8.1-9-4.2-11.9-8.7-29.2-9.3-41.8l8.5 0.6c0.8-10.4 10.8-11.5 13.6-6.4 1.4 2.6 0.4 4.7-0.4 7.2l9.1 0.3 4.5-13.7c-4.3-2.6-8.8-4.8-14.7-6.2-7.3-1.6-11.8-1.2-19.2 0 1.3-6.3 6.3-12 11.4-15.7 1.4-1 3.7-2.4 5.6-3.4 22.2-10.5 54.6-8.3 78.9-4.7 5.3 0.8 10.4 1.7 15.5 2.4 2.1-1.8 3.4-6.1 10.7-11.1 4.3-2.9 11.2-5.1 17.1-2.9 9.8 3.7 8 14.7 1.8 21-2.6 2.7-4.2 3.7-5.8 5.3zm-21.4 9.4c-0.8-0.7-1.7-1.1-2.7-1.6-1.9-1-4-1.9-6.1-2.6-4.1-1.4-10.2-2.8-15-2.5-9.4 0.6-20 4.1-26.5 8.4h13.9c1.4 4.4 6.9 7.4 12.8 7.4 6 0.1 11.5-3 12.8-7.4h13.5z"/>
	<path fill-rule="evenodd" class="s0" d="m414 354.2l-21.7 20.1c-0.5 0.5-1 0.8-1.6 1.3-1 0.8-1.3 2.3-1.8 3.7l-7.9 20.5c-1 2.5-2.1 5.5-3.2 7.9h-26.2l17.5-72.2 29.3-4.9c0 0.1 0 0.1 0 0.1 0 0 14.8 21.9 15.6 23.5z"/>
	<path fill-rule="evenodd" class="s0" d="m205.7 407.7h-19.7c0-4.6 1-10.5 1.1-15.5 0.3-5.2 0.5-10.7 0.7-15.9 0.4-27.4-2.6-49.3-7.9-75.6-0.4-2.4-0.9-4.7-1.4-6.9-0.5-2.2-1.3-4.9-1.4-7l3.6 6.5c5.9 8.8 14.6 19.2 25.1 22.2 1.9 0.7 1.3 0.2 2.3 3.1 1.9 5.3 3.3 11 4.4 16.8 5.1 25.5 1.6 50-6.8 72.3z"/>
	<path fill-rule="evenodd" class="s0" d="m199.4 101.9c-2.4 0-14.2-1.9-18.3-2.6-0.5 0-1 0-1.5-0.1l-1.1-0.3c7.5-11.2 21.2-14.4 23.6-6.6 1.2 3.7-0.9 7.5-2.7 9.6z"/>
	<path fill-rule="evenodd" class="s0" d="m101.1 412.6h31.2l27 0.2c-2.9-22.5 8.3-39.2 20.5-52.7 8.4-9.6 17.1-13.9 24.6-20.2-12.3 0.7-31.7 7.5-41.6 14.4l-11.2 8.2c-0.6-2.1-2.2-4.7-3.2-7.9-0.8-3.2-1.2-6.4-1.2-9.7-0.4-12.5 3.8-25.9 8.6-36.9 1.3-3.1 6.9-13.6 7.2-15.2l-8 5.7c-6.9 5.5-14.7 16.2-19.7 23.4-3.3 4.9-7.5 12.6-10 18.5-1.6 3.8-7.5 17.4-7.5 21.1-0.8-0.8-0.8-0.8-1.2-2.9-4.4-25.9-6.2-52.6-3.1-78.8 0.9-9.2 2.8-17.1 4.3-25.8-5.8 1.9-13.1 11-16.7 15.8-4.3 5.7-8.3 12.9-11.5 20.6-6 13.9-10.8 32.1-12.7 47.6 0 0.2-0.4 1.9-0.4 1.9-0.4 1.5 0 1-0.9 1.6-0.2-1.1-4.3-4.1-5.8-5.3-5.7-4.9-14.8-9.9-22-12.7-8-3.1-30.2-8.5-39.5-7.1 8 0.8 26.2 11.9 32.8 18.2 1.4 1.6 2.2 2.6 3.6 4 8.8 7.9 18.6 26.6 21 38.2l-5.5-6.8c-2-2.6-3.6-4.5-6.3-6.6-4.8-4-8.7-7-14.9-10.7-8.8-5.1-26.9-11.8-39-11.8 6.7 4.3 8.6 3.8 17.9 11.2 18.5 14.5 28.4 34.3 27.3 60.7l24.9-0.2z"/>
</svg>