<svg version="1.2" xmlns="http://www.w3.org/2000/svg" viewBox="0 0 500 500" width="500" height="500">
	<title>Novo Projeto</title>
	<style>
		.s0 { fill: #212121 } 
	</style>
	<path fill-rule="evenodd" class="s0" d="m185.8 130.6c0.6 3 10.4 16.1 13.4 19.2 3.7 3.7 7.4 7.2 11.7 10.2q3.1 2.2 7.1 3.9c4 1.7 8.5 3.1 12.9 3.3 1.7 0.1 3.8 0 5.4 0.1-0.7 0.2-25.4 7.6-26.7 8.3 1.6 1 5 2.7 6.9 3.5 1.3 0.4 6.8-1.4 8.5-1.9 30.7-8.2 64.6-9.5 95.6-2 26.7 6.4 51.4 18.8 72.3 35.3l14.7 12.3c2.6 2.4 5.7 5.4 8.1 8l5.2 5.5c5.1 5.6 10.1 11.5 14.7 17.8 1.8 2.4 7.4 9.8 8.6 12.8-15.2 20.5-30.1 52-11.1 76.2 3.3 4.2 4.3 4.3 7.6 7.3l-6.4 53.1c-1.2 0.4-21.5 0.2-24.5 0.2l-2.6-34.7c-7.7-0.9-16.6-6.9-22-11.4-6-5.1-11.2-11-16.1-17.2-1.8-2.5-3.8-5.3-5.5-7.9-3.2-5.2-7.2-11.4-9.5-17-2.5 0.5-6.5 1.8-9.6 2.6-10.5 2.5-21.4 3.4-32.4 3.7-11.5 0.3-22.9-0.4-34.3-1.8-3.5-0.6-7-1.2-10.5-1.7 0.5 1.1 1.5 2.7 2.2 3.9 1.4 2.5 0.6 1.8 3.5 2.7 5 1.6 25.4 7.9 29 8.7-1.9 0.8-14.9 0.8-17.7 0.8-14-0.3-27.6-2.5-41.1-5.8-2.6-0.7-5-1.4-7.5-2.1 1.3-9.3 2.8-13.1 2-23.3-0.4-4.8-2.7-17.9-4.8-21-0.8 1.3-11.4 57.8-11.9 60.8l-8.9 45.5c-0.9 5-2.1 10.2-2.9 15.2h-21.9c1-26.5-3.9-56.1-11.2-79.6-5.4-17-11.9-32-21.1-46.8-3.9-6.4-4.7-8.7-7.9-14.9-0.4 1.1-1.3 6.6-1.6 8.1-0.3 1.6 0.5 2.5 1 3.7 0.6 1.2 1.1 2.2 1.6 3.4 0.9 2.3 2 4.4 3 6.7 0.8 2.1 2.5 4.9 3 6.9-4.7-1.4-11.2-8.9-14-13-7.8-11.9-11.2-27.3-11.7-42.1-0.4-9.1 0.4-17 1.1-26-13 1.2-16.4 2.4-30.7 1.1-7.4-0.7-20.5-2.8-27.2-5.7-3.4-1.4-6.5-4.7-7.8-8.5-4-11.5-8.1-28-8.8-40.1l8.1 0.6c0.7-9.9 10.3-11.1 13-6.1 1.3 2.5 0.3 4.4-0.3 6.8l8.8 0.4 4.1-13.1c-4.1-2.6-8.5-4.7-14.1-6-6.9-1.6-11.4-1.2-18.3 0 1.2-6.2 6-11.5 10.9-15 1.4-1.1 3.5-2.3 5.5-3.2 21.3-10.2 52.3-8 75.5-4.7 5 0.8 10 1.7 14.8 2.4 2.1-1.7 3.3-5.8 10.4-10.6 4.1-2.8 10.5-5 16.3-2.8 9.4 3.5 7.7 14 1.7 20.2-2.4 2.4-4.1 3.4-5.6 4.8zm-20.4 9c-0.8-0.5-1.7-0.9-2.6-1.4-1.9-0.9-4-1.8-5.9-2.5-3.9-1.3-9.8-2.6-14.4-2.4-9 0.7-19.1 4.1-25.2 8.2h13.2c1.3 4.1 6.5 7 12.3 7 5.7 0 10.8-2.9 12.1-7h13.1z"/>
	<path fill-rule="evenodd" class="s0" d="m361.8 352.1l-20.8 19.4c-0.5 0.5-0.9 0.8-1.4 1.3-0.9 0.8-1.2 2.1-1.9 3.5l-7.5 19.5c-1 2.5-2 5.4-3 7.6h-25.3l17-69 27.9-4.9c0.1 0.1 0.1 0.1 0.1 0.1 0 0 14.3 21 14.9 22.5z"/>
	<path fill-rule="evenodd" class="s0" d="m162.1 403.4h-18.7c-0.1-4.3 0.8-10.1 1.1-14.8 0.2-5.1 0.5-10.2 0.5-15.3 0.4-26.1-2.5-47.2-7.5-72.4-0.5-2.3-0.9-4.5-1.4-6.7-0.4-2-1.3-4.7-1.5-6.7l3.7 6.3c5.5 8.5 13.9 18.3 23.9 21.3 1.9 0.7 1.3 0.2 2.3 2.9 1.8 5.1 3.1 10.6 4.3 16.1 4.9 24.4 1.5 48-6.7 69.3z"/>
	<path fill-rule="evenodd" class="s0" d="m156.2 110.3c-2.3 0-13.6-1.8-17.6-2.3-0.4-0.2-0.9-0.2-1.3-0.3l-1.2-0.3c7.2-10.7 20.4-13.8 22.7-6.2 1.1 3.5-0.9 7.2-2.6 9.1z"/>
</svg>